<svg xmlns="http://www.w3.org/2000/svg" width="36" height="42" viewBox="0 0 36 42" enable-background="new 0 0 36 42"> <path fill="#a4c828" d="M35.6 25.5c0 1.4-1.1 2.4-2.4 2.4s-2.4-1.1-2.4-2.4V14.6c0-1.4 1.1-2.4 2.4-2.4s2.4 1.1 2.4 2.4v10.9zm-30.3 0c0 1.4-1.1 2.4-2.4 2.4S.5 26.8.5 25.5V14.6c0-1.4 1.1-2.4 2.4-2.4s2.4 1.1 2.4 2.4v10.9zM23.6 3.1L25.5.3c0-.1 0-.2-.2-.3-.1-.1-.3-.1-.3 0l-2 2.8c-1.3-.5-3-.8-5-.8s-3.7.3-5.1.8l-2-2.8c0-.1-.2 0-.3 0-.1.1-.2.2-.2.3l2 2.7c-5.7 2.5-5.8 8.6-5.8 8.6h22.9c-.1 0-.3-6.1-5.9-8.5M13 8.1c-.8 0-1.4-.6-1.4-1.4s.6-1.4 1.4-1.4 1.4.6 1.4 1.4c0 .7-.6 1.4-1.4 1.4m10 0c-.8 0-1.4-.6-1.4-1.4s.6-1.4 1.4-1.4 1.4.6 1.4 1.4c0 .7-.7 1.4-1.4 1.4"></path> <path fill="#a4c828" d="M29.5 13h-23v19.2c0 .8.6 1.4 1.4 1.4h3v6c0 1.4 1.1 2.4 2.4 2.4s2.4-1.1 2.4-2.4v-6.1h4.6v6.1c0 1.4 1.1 2.4 2.4 2.4s2.4-1.1 2.4-2.4v-6.1h3c.8 0 1.4-.6 1.4-1.4V13z"></path> </svg>