<svg xmlns="http://www.w3.org/2000/svg" width="40" height="42" viewBox="0 0 40 42" enable-background="new 0 0 40 42"><path fill="#F47B3A" d="M31.1 1H8.9C4 1 0 5 0 9.9v22.3C0 37 4 41 8.9 41h22.3c4.9 0 8.9-4 8.9-8.9V9.9C40 5 36 1 31.1 1zm2.7 32.7s-1.6-2.6-4.2-2.6c-2.5 0-4 2.6-9 2.6-11.2 0-16.5-9.4-16.5-9.4 10.1 6.6 17 1.9 17 1.9-4.6-2.6-14.3-15.3-14.3-15.3 8.5 7.3 12.2 9.2 12.2 9.2-2.2-1.8-8.3-10.5-8.3-10.5 4.9 5 14.6 11.8 14.6 11.8 2.6-7.2-2.1-13.7-2.6-14.3 13.1 9 8.9 18.8 8.9 18.8s3.7 4.1 2.2 7.8z"></path><path fill="#DD6631" d="M4.2 24.4c10.1 6.6 17 1.9 17 1.9C16.6 23.7 6.9 11 6.9 11c8.4 7.2 12.1 9.1 12.1 9.1-2.2-1.8-8.3-10.5-8.3-10.5 4.9 5 14.6 11.8 14.6 11.8C28 14.1 23 7.5 22.7 7.1l-.1-.1-5.8-6H8.9C4 1 0 5 0 9.9V20l4.2 4.4c-.1 0-.1 0 0 0"></path></svg>