<svg xmlns="http://www.w3.org/2000/svg" width="39" height="42" viewBox="0 0 39 42" enable-background="new 0 0 39 42"><path fill="#8FC84F" d="M17.8.5c1-.6 2.4-.6 3.4 0 5.2 3 10.5 5.9 15.7 8.9 1 .6 1.6 1.7 1.6 2.8V30c0 1.2-.7 2.3-1.8 2.8-5.2 2.9-10.4 5.9-15.6 8.8-1.1.6-2.4.6-3.5-.1-1.6-.9-3.1-1.8-4.7-2.7-.3-.2-.7-.3-.9-.7.2-.3.6-.3.8-.4.7-.2 1.3-.5 1.9-.9.2-.1.3-.1.5 0 1.3.8 2.7 1.6 4 2.3.3.2.6-.1.8-.2 5.1-2.9 10.2-5.8 15.4-8.7.2-.1.3-.3.3-.5V12.1c0-.2-.1-.5-.3-.5C30.2 8.7 25 5.7 19.8 2.8c-.2-.1-.4-.1-.6 0C14 5.7 8.8 8.7 3.6 11.6c-.2.1-.4.3-.3.5v17.6c0 .2.1.4.3.5l4.2 2.4c.8.4 1.7.7 2.6.3.8-.3 1.3-1 1.3-1.9V13.5c0-.3.2-.5.5-.4h2c.3 0 .5.3.4.5v17.6c0 1.6-.6 3.3-2.1 4-1.8.9-4 .7-5.8-.2-1.5-.8-3-1.7-4.5-2.5-1-.5-1.8-1.7-1.8-2.8V12.2c0-1.2.7-2.3 1.7-2.8 5.2-3 10.5-5.9 15.7-8.9zM22.4 12.9c2.3-.1 4.7-.1 6.8 1 1.6.9 2.5 2.7 2.5 4.4 0 .2-.3.4-.5.4h-2c-.3 0-.4-.2-.5-.5-.2-.8-.6-1.7-1.4-2.1-1.2-.6-2.6-.6-4-.6-1 .1-2 .1-2.8.7-.6.4-.8 1.3-.6 2 .2.5.8.7 1.3.8 2.7.7 5.6.6 8.3 1.6 1.1.4 2.2 1.1 2.6 2.3.5 1.6.3 3.4-.8 4.7-.9 1-2.2 1.6-3.5 1.9-1.7.4-3.6.4-5.3.2-1.7-.2-3.4-.6-4.7-1.8-1.1-1-1.6-2.4-1.6-3.9 0-.2.3-.4.5-.4h2c.3 0 .5.2.5.5.1.8.4 1.6 1.1 2.1 1.4.9 3 .8 4.6.8 1.3-.1 2.7-.1 3.8-.9.6-.5.7-1.3.6-2-.2-.6-.8-.9-1.3-1-2.7-.9-5.6-.5-8.3-1.5-1.1-.4-2.1-1.1-2.6-2.2-.6-1.6-.3-3.5.9-4.8 1-1.1 2.8-1.6 4.4-1.7z"></path></svg>