<svg xmlns="http://www.w3.org/2000/svg" width="42" height="42" viewBox="0 0 68 42" enable-background="new 0 0 68 42"><g fill="#4F5B93"><path d="M51 15.7h-2.8l-1.5 7.9h2.5c1.7 0 2.8-.3 3.7-.9.8-.6 1.4-1.7 1.7-3.1.3-1.4.2-2.4-.4-2.9-.6-.8-1.6-1-3.2-1m-31.7 0h-2.8L15 23.6h2.4c1.7 0 2.8-.3 3.7-.9s1.4-1.7 1.7-3.1c.3-1.4.2-2.4-.4-2.9-.5-.8-1.5-1-3.1-1"></path><path d="M34 3.6C15.3 3.6 0 11.4 0 21s15.2 17.4 34 17.4c18.7 0 34-7.8 34-17.4 0-9.6-15.3-17.4-34-17.4zm-9.6 20.8c-.8.7-1.7 1.3-2.7 1.7-1 .4-2.3.5-3.8.5h-3.5l-.9 5.1h-4l3.6-18.8H21c2.4 0 4 .6 5.1 1.8 1.1 1.3 1.4 3 1 5.2-.2.9-.5 1.7-.9 2.5-.6.6-1.1 1.4-1.8 2zm11.8 2.1l1.6-8.4c.2-.9.1-1.6-.2-1.9-.3-.4-1-.6-2-.6h-3.2l-2 10.8h-4L30 7.6h4l-.9 5.1h3.6c2.3 0 3.9.4 4.7 1.2s1.1 2.1.7 3.9l-1.7 8.7h-4.2zm22.4-6.7c-.2.9-.5 1.7-.9 2.5-.5.7-1 1.5-1.7 2.1-.8.7-1.7 1.3-2.7 1.7-1 .3-2.3.5-3.8.5H46l-.9 5.1h-4l3.6-18.8h7.8c2.4 0 4 .6 5.1 1.8 1.1 1.1 1.5 2.8 1 5.1z"></path></g></svg>